<svg width="500" height="476" viewBox="0 0 500 476" fill="none" xmlns="http://www.w3.org/2000/svg">
<rect width="500" height="476" fill="#F5F5F5"/>
<circle cx="450" cy="124" r="10" fill="#66DAFF"/>
<circle cx="450" cy="352" r="10" fill="#66DAFF"/>
<circle cx="450" cy="466" r="10" fill="#66DAFF"/>
<circle cx="450" cy="428" r="10" fill="#66DAFF"/>
<circle cx="450" cy="390" r="10" fill="#66DAFF"/>
<circle cx="450" cy="314" r="10" fill="#66DAFF"/>
<circle cx="450" cy="276" r="10" fill="#66DAFF"/>
<circle cx="450" cy="86" r="10" fill="#66DAFF"/>
<circle cx="450" cy="200" r="10" fill="#66DAFF"/>
<circle cx="450" cy="238" r="10" fill="#66DAFF"/>
<circle cx="450" cy="162" r="10" fill="#66DAFF"/>
<circle cx="450" cy="10" r="10" fill="#66DAFF"/>
<circle cx="450" cy="48" r="10" fill="#66DAFF"/>
<circle cx="490" cy="124" r="10" fill="#66DAFF"/>
<circle cx="490" cy="352" r="10" fill="#66DAFF"/>
<circle cx="490" cy="466" r="10" fill="#66DAFF"/>
<circle cx="490" cy="428" r="10" fill="#66DAFF"/>
<circle cx="490" cy="390" r="10" fill="#66DAFF"/>
<circle cx="490" cy="314" r="10" fill="#66DAFF"/>
<circle cx="490" cy="276" r="10" fill="#66DAFF"/>
<circle cx="490" cy="86" r="10" fill="#66DAFF"/>
<circle cx="490" cy="200" r="10" fill="#66DAFF"/>
<circle cx="490" cy="238" r="10" fill="#66DAFF"/>
<circle cx="490" cy="162" r="10" fill="#66DAFF"/>
<circle cx="490" cy="10" r="10" fill="#66DAFF"/>
<circle cx="490" cy="48" r="10" fill="#66DAFF"/>
<circle cx="10" cy="124" r="10" fill="#66DAFF"/>
<circle cx="10" cy="352" r="10" fill="#66DAFF"/>
<circle cx="10" cy="466" r="10" fill="#66DAFF"/>
<circle cx="10" cy="428" r="10" fill="#66DAFF"/>
<circle cx="10" cy="390" r="10" fill="#66DAFF"/>
<circle cx="10" cy="314" r="10" fill="#66DAFF"/>
<circle cx="10" cy="276" r="10" fill="#66DAFF"/>
<circle cx="10" cy="86" r="10" fill="#66DAFF"/>
<circle cx="10" cy="200" r="10" fill="#66DAFF"/>
<circle cx="10" cy="238" r="10" fill="#66DAFF"/>
<circle cx="10" cy="162" r="10" fill="#66DAFF"/>
<circle cx="10" cy="10" r="10" fill="#66DAFF"/>
<circle cx="10" cy="48" r="10" fill="#66DAFF"/>
<circle cx="410" cy="124" r="10" fill="#66DAFF"/>
<circle cx="410" cy="352" r="10" fill="#66DAFF"/>
<circle cx="410" cy="466" r="10" fill="#66DAFF"/>
<circle cx="410" cy="428" r="10" fill="#66DAFF"/>
<circle cx="410" cy="390" r="10" fill="#66DAFF"/>
<circle cx="410" cy="314" r="10" fill="#66DAFF"/>
<circle cx="410" cy="276" r="10" fill="#66DAFF"/>
<circle cx="410" cy="86" r="10" fill="#66DAFF"/>
<circle cx="410" cy="200" r="10" fill="#66DAFF"/>
<circle cx="410" cy="238" r="10" fill="#66DAFF"/>
<circle cx="410" cy="162" r="10" fill="#66DAFF"/>
<circle cx="410" cy="10" r="10" fill="#66DAFF"/>
<circle cx="410" cy="48" r="10" fill="#66DAFF"/>
<circle cx="370" cy="124" r="10" fill="#66DAFF"/>
<circle cx="370" cy="352" r="10" fill="#66DAFF"/>
<circle cx="370" cy="466" r="10" fill="#66DAFF"/>
<circle cx="370" cy="428" r="10" fill="#66DAFF"/>
<circle cx="370" cy="390" r="10" fill="#66DAFF"/>
<circle cx="370" cy="314" r="10" fill="#66DAFF"/>
<circle cx="370" cy="276" r="10" fill="#66DAFF"/>
<circle cx="370" cy="86" r="10" fill="#66DAFF"/>
<circle cx="370" cy="200" r="10" fill="#66DAFF"/>
<circle cx="370" cy="238" r="10" fill="#66DAFF"/>
<circle cx="370" cy="162" r="10" fill="#66DAFF"/>
<circle cx="370" cy="10" r="10" fill="#66DAFF"/>
<circle cx="370" cy="48" r="10" fill="#66DAFF"/>
<circle cx="330" cy="124" r="10" fill="#66DAFF"/>
<circle cx="330" cy="352" r="10" fill="#66DAFF"/>
<circle cx="330" cy="466" r="10" fill="#66DAFF"/>
<circle cx="330" cy="428" r="10" fill="#66DAFF"/>
<circle cx="330" cy="390" r="10" fill="#66DAFF"/>
<circle cx="330" cy="314" r="10" fill="#66DAFF"/>
<circle cx="330" cy="276" r="10" fill="#66DAFF"/>
<circle cx="330" cy="86" r="10" fill="#66DAFF"/>
<circle cx="330" cy="200" r="10" fill="#66DAFF"/>
<circle cx="330" cy="238" r="10" fill="#66DAFF"/>
<circle cx="330" cy="162" r="10" fill="#66DAFF"/>
<circle cx="330" cy="10" r="10" fill="#66DAFF"/>
<circle cx="330" cy="48" r="10" fill="#66DAFF"/>
<circle cx="290" cy="124" r="10" fill="#66DAFF"/>
<circle cx="290" cy="352" r="10" fill="#66DAFF"/>
<circle cx="290" cy="466" r="10" fill="#66DAFF"/>
<circle cx="290" cy="428" r="10" fill="#66DAFF"/>
<circle cx="290" cy="390" r="10" fill="#66DAFF"/>
<circle cx="290" cy="314" r="10" fill="#66DAFF"/>
<circle cx="290" cy="276" r="10" fill="#66DAFF"/>
<circle cx="290" cy="86" r="10" fill="#66DAFF"/>
<circle cx="290" cy="200" r="10" fill="#66DAFF"/>
<circle cx="290" cy="238" r="10" fill="#66DAFF"/>
<circle cx="290" cy="162" r="10" fill="#66DAFF"/>
<circle cx="290" cy="10" r="10" fill="#66DAFF"/>
<circle cx="290" cy="48" r="10" fill="#66DAFF"/>
<circle cx="250" cy="124" r="10" fill="#66DAFF"/>
<circle cx="250" cy="352" r="10" fill="#66DAFF"/>
<circle cx="250" cy="466" r="10" fill="#66DAFF"/>
<circle cx="250" cy="428" r="10" fill="#66DAFF"/>
<circle cx="250" cy="390" r="10" fill="#66DAFF"/>
<circle cx="250" cy="314" r="10" fill="#66DAFF"/>
<circle cx="250" cy="276" r="10" fill="#66DAFF"/>
<circle cx="250" cy="86" r="10" fill="#66DAFF"/>
<circle cx="250" cy="200" r="10" fill="#66DAFF"/>
<circle cx="250" cy="238" r="10" fill="#66DAFF"/>
<circle cx="250" cy="162" r="10" fill="#66DAFF"/>
<circle cx="250" cy="10" r="10" fill="#66DAFF"/>
<circle cx="250" cy="48" r="10" fill="#66DAFF"/>
<circle cx="210" cy="124" r="10" fill="#66DAFF"/>
<circle cx="210" cy="352" r="10" fill="#66DAFF"/>
<circle cx="210" cy="466" r="10" fill="#66DAFF"/>
<circle cx="210" cy="428" r="10" fill="#66DAFF"/>
<circle cx="210" cy="390" r="10" fill="#66DAFF"/>
<circle cx="210" cy="314" r="10" fill="#66DAFF"/>
<circle cx="210" cy="276" r="10" fill="#66DAFF"/>
<circle cx="210" cy="86" r="10" fill="#66DAFF"/>
<circle cx="210" cy="200" r="10" fill="#66DAFF"/>
<circle cx="210" cy="238" r="10" fill="#66DAFF"/>
<circle cx="210" cy="162" r="10" fill="#66DAFF"/>
<circle cx="210" cy="10" r="10" fill="#66DAFF"/>
<circle cx="210" cy="48" r="10" fill="#66DAFF"/>
<circle cx="170" cy="124" r="10" fill="#66DAFF"/>
<circle cx="170" cy="352" r="10" fill="#66DAFF"/>
<circle cx="170" cy="466" r="10" fill="#66DAFF"/>
<circle cx="170" cy="428" r="10" fill="#66DAFF"/>
<circle cx="170" cy="390" r="10" fill="#66DAFF"/>
<circle cx="170" cy="314" r="10" fill="#66DAFF"/>
<circle cx="170" cy="276" r="10" fill="#66DAFF"/>
<circle cx="170" cy="86" r="10" fill="#66DAFF"/>
<circle cx="170" cy="200" r="10" fill="#66DAFF"/>
<circle cx="170" cy="238" r="10" fill="#66DAFF"/>
<circle cx="170" cy="162" r="10" fill="#66DAFF"/>
<circle cx="170" cy="10" r="10" fill="#66DAFF"/>
<circle cx="170" cy="48" r="10" fill="#66DAFF"/>
<circle cx="130" cy="124" r="10" fill="#66DAFF"/>
<circle cx="130" cy="352" r="10" fill="#66DAFF"/>
<circle cx="130" cy="466" r="10" fill="#66DAFF"/>
<circle cx="130" cy="428" r="10" fill="#66DAFF"/>
<circle cx="130" cy="390" r="10" fill="#66DAFF"/>
<circle cx="130" cy="314" r="10" fill="#66DAFF"/>
<circle cx="130" cy="276" r="10" fill="#66DAFF"/>
<circle cx="130" cy="86" r="10" fill="#66DAFF"/>
<circle cx="130" cy="200" r="10" fill="#66DAFF"/>
<circle cx="130" cy="238" r="10" fill="#66DAFF"/>
<circle cx="130" cy="162" r="10" fill="#66DAFF"/>
<circle cx="130" cy="10" r="10" fill="#66DAFF"/>
<circle cx="130" cy="48" r="10" fill="#66DAFF"/>
<circle cx="90" cy="124" r="10" fill="#66DAFF"/>
<circle cx="90" cy="352" r="10" fill="#66DAFF"/>
<circle cx="90" cy="466" r="10" fill="#66DAFF"/>
<circle cx="90" cy="428" r="10" fill="#66DAFF"/>
<circle cx="90" cy="390" r="10" fill="#66DAFF"/>
<circle cx="90" cy="314" r="10" fill="#66DAFF"/>
<circle cx="90" cy="276" r="10" fill="#66DAFF"/>
<circle cx="90" cy="86" r="10" fill="#66DAFF"/>
<circle cx="90" cy="200" r="10" fill="#66DAFF"/>
<circle cx="90" cy="238" r="10" fill="#66DAFF"/>
<circle cx="90" cy="162" r="10" fill="#66DAFF"/>
<circle cx="90" cy="10" r="10" fill="#66DAFF"/>
<circle cx="90" cy="48" r="10" fill="#66DAFF"/>
<circle cx="50" cy="124" r="10" fill="#66DAFF"/>
<circle cx="50" cy="352" r="10" fill="#66DAFF"/>
<circle cx="50" cy="466" r="10" fill="#66DAFF"/>
<circle cx="50" cy="428" r="10" fill="#66DAFF"/>
<circle cx="50" cy="390" r="10" fill="#66DAFF"/>
<circle cx="50" cy="314" r="10" fill="#66DAFF"/>
<circle cx="50" cy="276" r="10" fill="#66DAFF"/>
<circle cx="50" cy="86" r="10" fill="#66DAFF"/>
<circle cx="50" cy="200" r="10" fill="#66DAFF"/>
<circle cx="50" cy="238" r="10" fill="#66DAFF"/>
<circle cx="50" cy="162" r="10" fill="#66DAFF"/>
<circle cx="50" cy="10" r="10" fill="#66DAFF"/>
<circle cx="50" cy="48" r="10" fill="#66DAFF"/>
</svg>
